<svg xmlns="http://www.w3.org/2000/svg" xml:space="preserve" id="svg1" width="1080" height="1080" viewBox="0 0 285.75 285.75"><g id="layer1" style="display:inline;opacity:1;mix-blend-mode:multiply"><path id="path16" d="m47.01 78.891 52.913 32.072.707.408 27.783-12.367c.397-.176.802.116.902.649 4.783 25.64 6.985 54.91 10.184 81.423.152 1.153 1.818 1.161 1.98.009l10.398-80.657a.89.89 0 0 1 1.22-.709l27.932 11.486 53.049-32.395-53.05 15.634-40.571-17.588-40.534 17.588Z" style="font-variation-settings:&quot;wght&quot;900;opacity:1;fill:#000;stroke-width:.79375;stroke-linecap:round;stroke-linejoin:round;stroke-miterlimit:4.7;stroke:none"/><path id="path17" d="m74.137 107.216 22.805 13.377 35.215 72.243 8.387 4.835 8.777-4.513 34.67-72.283 22.736-13.538-41.854 87.352-12.848 9.187-11.481 5.64-11.57-6.769-12.45-6.607z" style="font-variation-settings:&quot;wght&quot;900;opacity:1;fill:#000;stroke-width:.79375;stroke-linecap:round;stroke-linejoin:round;stroke-miterlimit:4.7;stroke:#000"/></g></svg>